<svg width="28" height="28" viewBox="0 0 28 28" fill="none" xmlns="http://www.w3.org/2000/svg">
<path fill-rule="evenodd" clip-rule="evenodd" d="M9.0271 23.0417C9.0271 21.9141 9.94118 21 11.0688 21C12.1964 21 13.1104 21.9141 13.1104 23.0417C13.1104 24.1692 12.1964 25.0833 11.0688 25.0833C9.94118 25.0833 9.0271 24.1692 9.0271 23.0417Z" fill="currentColor"/>
<path fill-rule="evenodd" clip-rule="evenodd" d="M19.8333 23.0417C19.8333 21.9141 20.7473 21 21.8749 21C23.0025 21 23.9166 21.9141 23.9166 23.0417C23.9166 24.1692 23.0025 25.0833 21.8749 25.0833C20.7473 25.0833 19.8333 24.1692 19.8333 23.0417Z" fill="currentColor"/>
<path fill-rule="evenodd" clip-rule="evenodd" d="M2.33325 4.64754C2.33325 4.01377 2.84702 3.5 3.48079 3.5H7.30593C7.85288 3.5 8.32381 3.88602 8.43115 4.42233L9.20355 8.28142H24.519C24.861 8.28142 25.1852 8.43396 25.4032 8.69747C25.6212 8.96097 25.7103 9.30798 25.6463 9.64393L24.1146 17.6757C23.9747 18.3802 23.5914 19.0129 23.032 19.4633C22.4757 19.9111 21.7805 20.1501 21.0667 20.1393H11.791C11.0773 20.1501 10.382 19.9111 9.8258 19.4633C9.26666 19.0132 8.88356 18.3809 8.74345 17.6769C8.74337 17.6765 8.74329 17.6761 8.74321 17.6757L7.14691 9.70019C7.13975 9.67064 7.13373 9.64064 7.12891 9.61024L6.36531 5.79508H3.48079C2.84702 5.79508 2.33325 5.28131 2.33325 4.64754ZM9.6629 10.5765L10.9943 17.2286C11.0293 17.4047 11.1251 17.5629 11.265 17.6755C11.4048 17.7881 11.5798 17.8479 11.7593 17.8445L11.7813 17.8443H21.0764L21.0984 17.8445C21.2779 17.8479 21.4529 17.7881 21.5928 17.6755C21.7318 17.5636 21.8273 17.4067 21.8628 17.2319C21.863 17.2308 21.8632 17.2297 21.8634 17.2286L23.132 10.5765H9.6629Z" fill="currentColor"/>
</svg>
