<svg width="115" height="28" viewBox="0 0 115 28" fill="none" xmlns="http://www.w3.org/2000/svg">
<path d="M0.00832662 10.1163L5.22047 6.22796V22.9468H11.5983C14.0045 22.9468 15.6781 21.3898 15.6781 19.1334C15.6781 16.8771 14.0045 15.3201 11.5983 15.3201H8.10131L12.5724 10.849C13.813 9.60836 14.0878 8.82571 14.0878 7.96812C14.0878 6.26127 12.7639 5.05398 10.6657 5.05398H0.00832662V0.391357H11.5566C16.0694 0.391357 19.2916 3.114 19.2916 7.0356C19.2916 8.90065 18.9003 10.2994 17.5015 11.6982L16.569 12.6307C19.1001 13.8713 20.8819 16.4025 20.8819 19.633C20.8819 24.3373 17.1102 27.6011 11.8231 27.6011H0V10.1163H0.00832662Z" fill="#002B28"/>
<path d="M23.7211 0.399658H28.9332V6.153H23.7211V0.399658ZM23.7211 11.207L28.9332 7.31866V27.6094H23.7211V11.207Z" fill="#002B28"/>
<path d="M32.6633 20.9984V6.15294L37.8755 2.10645V7.7016H43.5539V12.564H37.8755V20.4156C37.8755 21.856 38.7664 22.7469 40.2068 22.7469H43.5539V27.6093H39.241C35.1528 27.6093 32.6633 25.1198 32.6633 20.9984Z" fill="#002B28"/>
<path d="M53.0707 7.70166H56.5676V12.5641H53.2289C51.7885 12.5641 50.8976 13.455 50.8976 14.8954V27.6094H45.6854V15.0952C45.6854 10.3494 48.3331 7.70166 53.0707 7.70166Z" fill="#002B28"/>
<path d="M56.884 17.6596C56.884 12.0229 60.814 7.3186 67.0669 7.3186C73.2865 7.3186 77.2497 11.6732 77.2497 17.6596C77.2497 17.9344 77.2497 18.2008 77.2081 18.4756H65.5515L71.538 14.3958C70.6471 12.8804 69.1234 11.9063 67.0669 11.9063C63.7198 11.9063 61.7382 14.5124 61.7382 17.6596C61.7382 21.5479 64.2277 23.413 67.2584 23.413C69.0485 23.413 70.6388 22.6387 71.5713 21.0817H76.7834C75.4263 25.6277 71.4214 28.0007 67.2584 28.0007C61.8214 28.0007 56.884 24.5786 56.884 17.6596Z" fill="#002B28"/>
<path d="M87.3241 0.399658H93.194V5.26211H87.4823C86.0419 5.26211 85.151 6.153 85.151 7.59342V9.3419H95.8001V27.6177H90.588V14.196H85.1427V27.6094H79.9305V7.78492C79.9389 3.03904 82.5866 0.399658 87.3241 0.399658Z" fill="#002B28"/>
<path d="M100.08 4.04649L105.292 0V27.6011H100.08V4.04649Z" fill="#002B28"/>
<path d="M109.563 4.04649L114.775 0V27.6011H109.563V4.04649Z" fill="#002B28"/>
</svg>
