<svg width="14" height="16" viewBox="0 0 14 16" fill="none" xmlns="http://www.w3.org/2000/svg">
<path fill-rule="evenodd" clip-rule="evenodd" d="M0.45459 4.07285C0.45459 3.67119 0.780201 3.34558 1.18186 3.34558H12.9637C13.3653 3.34558 13.691 3.67119 13.691 4.07285C13.691 4.47452 13.3653 4.80013 12.9637 4.80013H1.18186C0.780201 4.80013 0.45459 4.47452 0.45459 4.07285Z" fill="currentColor"/>
<path fill-rule="evenodd" clip-rule="evenodd" d="M5.76367 2.18184C5.60936 2.18184 5.46138 2.24314 5.35226 2.35225C5.24315 2.46136 5.18185 2.60935 5.18185 2.76366V3.34548H8.96367V2.76366C8.96367 2.60935 8.90237 2.46136 8.79326 2.35225C8.68415 2.24314 8.53616 2.18184 8.38185 2.18184H5.76367ZM10.4182 3.34548V2.76366C10.4182 2.22358 10.2037 1.70562 9.82178 1.32373C9.43989 0.94184 8.92193 0.727295 8.38185 0.727295H5.76367C5.22359 0.727295 4.70564 0.94184 4.32375 1.32373C3.94185 1.70562 3.72731 2.22358 3.72731 2.76366V3.34548H2.49094C2.08928 3.34548 1.76367 3.67109 1.76367 4.07275V13.2364C1.76367 13.7765 1.97822 14.2944 2.36011 14.6763C2.742 15.0582 3.25996 15.2727 3.80004 15.2727H10.3455C10.8856 15.2727 11.4035 15.0582 11.7854 14.6763C12.1673 14.2944 12.3819 13.7765 12.3819 13.2364V4.07275C12.3819 3.67109 12.0562 3.34548 11.6546 3.34548H10.4182ZM3.21822 4.80002V13.2364C3.21822 13.3907 3.27952 13.5387 3.38863 13.6478C3.49774 13.7569 3.64573 13.8182 3.80004 13.8182H10.3455C10.4998 13.8182 10.6478 13.7569 10.7569 13.6478C10.866 13.5387 10.9273 13.3907 10.9273 13.2364V4.80002H3.21822Z" fill="currentColor"/>
<path fill-rule="evenodd" clip-rule="evenodd" d="M8.38181 6.61816C8.78348 6.61816 9.10909 6.94378 9.10909 7.34544V11.2727C9.10909 11.6744 8.78348 12 8.38181 12C7.98015 12 7.65454 11.6744 7.65454 11.2727V7.34544C7.65454 6.94378 7.98015 6.61816 8.38181 6.61816Z" fill="currentColor"/>
<path fill-rule="evenodd" clip-rule="evenodd" d="M5.76365 6.61816C6.16531 6.61816 6.49092 6.94378 6.49092 7.34544V11.2727C6.49092 11.6744 6.16531 12 5.76365 12C5.36199 12 5.03638 11.6744 5.03638 11.2727V7.34544C5.03638 6.94378 5.36199 6.61816 5.76365 6.61816Z" fill="currentColor"/>
</svg>
